<?xml version="1.0" encoding="utf-8"?>
<!-- Generator: Adobe Illustrator 23.0.2, SVG Export Plug-In . SVG Version: 6.00 Build 0)  -->
<svg version="1.1" id="Layer_1" xmlns="http://www.w3.org/2000/svg" xmlns:xlink="http://www.w3.org/1999/xlink" x="0px" y="0px"
	 viewBox="0 0 528.4571 350.3467" enable-background="new 0 0 528.4571 350.3467" xml:space="preserve">
<g>
	<path d="M135.1875,253.542c-3.1601-5.1045-7.5527-9.3614-12.7607-12.3662C125.9092,245.1084,130.1319,249.3193,135.1875,253.542z"
		/>
	<path d="M511.5664,298.0674c1.9209-3.3809,3.0225-7.2862,3.0225-11.4522c0-12.8242-10.3965-23.2207-23.2217-23.2207
		c-2.5752,0-5.0488,0.4258-7.3633,1.1992c0.0684-0.7138,0.1065-1.4365,0.1065-2.1679c0-12.2891-9.9639-22.254-22.2539-22.254
		c-5.3184,0-10.1973,1.8682-14.0254,4.9795c-3.9355-3.3984-8.6074-5.9638-13.7471-7.4267c0.1289-1.2627,0.1963-2.5449,0.1963-3.8418
		c0-14.877-8.7246-27.7139-21.334-33.6836l1.9776-8.4063l-6.7412,6.5391c-3.5225-1.1045-7.2686-1.7012-11.1543-1.7012
		c-3.1875,0-6.2813,0.4024-9.2344,1.1553c6.7324-9.5537,11.9902-22.0244,14.1846-38.0732c0,0-1.0518,2.9482-3.6602,7.6767
		c-6.7217,12.1865-23.7891,36.1983-59.8457,52.0801c-2.6426,1.1641-5.3809,2.2861-8.2305,3.3545
		c2.1299,2.8896,10.9766,3.7764,21.8096,0.708c-0.0264,0.0518-0.0557,0.1104-0.082,0.1611
		c-1.4043,2.7159-2.5742,4.8711-3.3867,6.335c-0.8125,1.4658-1.25,2.21-1.25,2.2129l-5.5684,9.4892l10.5908-2.0048l0.2217-0.042
		c0.3379-0.1231,22.8682-4.253,43.9209-18.3213c-5.9883,15.2803-14.7676,28.6621-22.8574,38.8906
		c-2.4024,3.043-4.7325,5.7891-6.9112,8.2441c8.1065-3.1377,15.0899-6.7529,21.0196-10.4384
		c8.7881-12.4785,17.5039-28.1416,22.3291-46c8.25,5.498,14.1748,14.1992,16.0127,24.3271
		c-0.6485-0.0342-1.3008-0.0537-1.9571-0.0537c-3.9443,0-7.7382,0.6377-11.2939,1.8018c-1.4541,3.1806-3.001,6.1611-4.6318,8.9423
		c-9.586,10.0694-32.2129,28.9571-71.1758,35.1475c-2.8448,0.4522-5.752,0.8555-8.7725,1.1631
		c1.4961,3.7695,11.9356,7.2471,25.4375,5.9746c0.9004,1.0977,2.5117,2.8525,4.9053,4.6494
		c3.6494,2.7451,9.2871,5.5713,16.5683,5.5664c1.8018,0.002,3.6895-0.1728,5.6485-0.5478
		c-5.293,11.208-13.6201,19.3496-21.417,25.0029c-4.9151,3.5645-9.5791,6.0967-12.9785,7.7178
		c-1.7002,0.8125-3.083,1.3945-4.0215,1.7705c-0.4697,0.1875-0.8272,0.3222-1.0576,0.4062
		c-0.2315,0.086-0.2979,0.1055-0.2979,0.1084l-4.7363,1.5987l3.2002,9.4765l4.7383-1.6015
		c0.3066-0.1123,9.9726-3.3819,21.0195-11.377c9.7588-7.0654,20.707-17.9873,26.6621-33.7539
		c0.7656-2.0273,1.459-4.124,2.0459-6.3145l2.9453-11.0087l-10.0928,5.2861c-0.2851,0.1484-0.5566,0.2725-0.8349,0.4092
		c-4.2998,2.1093-7.8613,2.8203-10.8233,2.8271c-3.8291-0.0058-6.8349-1.1855-9.1523-2.6181
		c5.3359-1.585,10.8496-3.9581,16.2656-7.3282c10.2891-6.4033,20.2217-16.4062,27.9072-31.4492
		c1.9043-0.3642,3.8682-0.5625,5.879-0.5625c17.1884,0,31.122,13.9336,31.122,31.1231c0,0.1865-0.0107,0.3711-0.0136,0.5566
		c-4.8633,1.083-9.3555,3.1406-13.2657,5.959c3.1231-0.874,6.4121-1.3516,9.8145-1.3516c20.084,0,36.3633,16.2793,36.3633,36.3633
		c0,11.9873-5.8028,22.6172-14.752,29.2412c2.6943-0.792,5.2559-1.8867,7.6504-3.2471
		c10.9785-6.2373,18.3906-18.0293,18.3906-31.5585c0-4.6094-0.8681-9.0137-2.4355-13.0694
		c1.0058-0.1162,2.0273-0.1826,3.0654-0.1826c14.6065,0,26.4473,11.8418,26.4473,26.4453c0,9.4736-4.9834,17.7774-12.4678,22.4483
		c12.7773-2.3301,22.4678-13.5118,22.4678-26.962C528.4571,311.9736,521.4834,302.1943,511.5664,298.0674z M368.8428,224.3584
		c-2.625,1.0156-5.0869,1.8711-7.2978,2.581c1.374-2.6933,2.9306-5.8447,4.5791-9.3554c4.7168-2.6934,9.4404-6.1622,13.8593-10.543
		c3.0225-0.792,6.1944-1.2168,9.4659-1.2168c3.2822,0,6.4638,0.4287,9.4961,1.2256
		C389.3604,215.1836,378.0977,220.7851,368.8428,224.3584z M476.9102,264.3906c0,1.583-0.2275,3.1094-0.6182,4.5703
		c-3.0371,2.5947-5.3974,5.9561-6.7773,9.7871c-0.8574,0.6153-1.7725,1.1514-2.7354,1.6065
		c-2.2089-0.751-4.5127-1.294-6.8896-1.6075c0.3398-1.9951,0.5264-4.0419,0.5264-6.1337c0-9.21-3.4375-17.6124-9.0909-24.0098
		c2.3829-1.1973,5.0645-1.8867,7.9131-1.8867C468.9991,246.7168,476.9102,254.6289,476.9102,264.3906z M487.9473,299.2949
		c-3.4629-7.3682-9.3291-13.377-16.5908-17.0244c2.6025-7.0274,9.3457-12.0459,17.2793-12.0459
		c10.1855,0,18.4404,8.2558,18.4404,18.4394c0,2.7344-0.6103,5.3213-1.6787,7.6543c-1.4189-0.2265-2.873-0.3476-4.3555-0.3476
		C496.2989,295.9707,491.8379,297.1758,487.9473,299.2949z"/>
	<path d="M411,238.7929c-7.9277,3.0811-14.5029,8.8614-18.5937,16.2207C401.4864,248.7578,407.5791,242.6718,411,238.7929z"/>
	<path d="M291.2413,242.2578c0.0195-0.2266,0.0341-0.4541,0.0341-0.6856v-47.413l12.375,15.7246
		c1.4483,1.8418,3.628,2.9531,5.9698,3.0468c0.1074,0.0039,0.2138,0.0059,0.3203,0.0059c2.2265,0,4.3525-0.9287,5.872-2.5703
		l24.334-26.335c2.9971-3.2451,2.7969-8.3056-0.4463-11.3027c-3.2451-2.999-8.3056-2.7988-11.3046,0.4463l-17.9708,19.4453
		l-9.2617-11.7695c5.5918-7.711,9.3907-18.8955,7.1973-34.0323c0,0-0.1231,1.8633-0.8369,4.9776
		c-1.8252,7.9541-7.5615,24.1416-25.2061,38.8506c-2.5713,0.7265-4.5927,0.7158-5.5234,0
		c7.8564-5.8331,13.6621-12.0254,17.9619-17.9375l-3.2822-4.1709c-1.4033-1.7832-3.4121-2.8028-5.5049-3.0079
		c-4.0879,7.8477-12.2949,13.2217-21.7393,13.2217c-9.4433,0-17.6504-5.374-21.7382-13.2207
		c-2.0938,0.2051-4.1045,1.2246-5.5079,3.0088l-0.0019-0.0019l-10.5401,13.3955c10.9532,11.6123,27.3331,24.3007,51.2042,33.3672
		c-1.1915,1.6035-4.4766,2.5732-9.0264,2.5712c-35.7285-15.915-52.5733-39.8242-59.1963-51.9502
		c-2.5703-4.706-3.6025-7.6367-3.6025-7.6367c1.7402,13.1299,5.5556,23.8535,10.5576,32.545l-16.3164-17.6573
		c-2.9991-3.2451-8.0596-3.4433-11.3047-0.4443c-3.2442,2.9971-3.4444,8.0576-0.4453,11.3047l24.334,26.333
		c1.5166,1.6416,3.6445,2.5703,5.872,2.5703c0.1065,0,0.2129-0.002,0.3194-0.0059c2.3427-0.0937,4.5195-1.205,5.9697-3.0468
		l3.165-4.0225c2.9688,2.9043,6.0703,5.3994,9.2119,7.5244v28.1865c0,0.2315,0.0147,0.459,0.0342,0.6846l-14.1963,59.1426
		c6.5313,4.0244,14.084,7.8564,22.7569,11.1445l15.1797-63.2431h6.541l6.5664,27.3554
		c8.4365-5.3125,15.5156-10.9795,21.4394-16.6338L291.2413,242.2578z"/>
	<circle cx="264.2286" cy="154.2519" r="22.5"/>
	<path d="M355.6045,75.5039l-5.4785-10.7656l-3.7334,11.4873c0,0-0.1299,0.4003-0.4131,1.2011
		c-0.9892,2.8106-3.7441,10.1455-7.75,17.5137c-2.2099,4.1377-4.8877,8.249-7.7031,11.5596
		c-0.3926-3.5137-0.9873-7.7461-1.8789-12.3731c7.4346-10.4131,12.4522-25.3886,9.6836-45.5879c0,0-0.1826,2.4873-1.1631,6.6485
		c-2.5381,10.7685-10.4892,32.8398-34.7705,52.7529c-1.7725,1.4541-3.6084,2.8994-5.5596,4.3252
		c2.8682,2.2422,13.4004-0.3438,23.2334-8.7607c0.3701,2.6523,0.6309,5.0322,0.8125,7.0214
		c0.1807,2.0069,0.2852,3.6172,0.3428,4.7139c0.0566,1.0957,0.0654,1.6299,0.0684,1.6299l0.167,8.4473l7.3242-4.212
		c9.1787-5.4296,15.4209-15.8134,20.0215-24.831c0.7353-1.4697,1.4179-2.9063,2.0459-4.2813
		c1.6484,7.2295,2.3164,15.3682,2.2998,23.3868c0,3.1484-0.1006,6.2753-0.2686,9.3271c4.1621-4.5068,7.5195-8.9473,10.2139-13.0957
		C362.7881,99.0312,360.9668,86.123,355.6045,75.5039z"/>
	<path d="M265.6631,19.0283C250.5928,11.0625,238.2637,6.167,238.1553,6.123L222.7305,0l9.4746,13.6259
		c6.0811,8.6524,8.7949,15.2042,8.708,19.3018c-0.0771,3.1621-1.0615,5.4111-4.541,8.4649
		c-2.3076,1.9697-5.7588,4.0048-10.3584,6.0527c1.4043,2.7949,3.0586,5.7207,4.9795,8.7275
		c4.7471-2.1689,8.6621-4.4804,11.832-7.1406c5.0811-4.1768,8.1651-9.9023,8.0879-16.1045
		c-0.042-3.7754-0.9687-7.5137-2.622-11.4014c5.29,2.4971,11.6513,5.6739,18.2636,9.3653c4.0254,2.2392,8.1446,4.6816,12.167,7.2695
		c1.8682-3.1846,3.3281-6.2246,4.4658-9.0166C277.2852,25.4023,271.2852,22.0127,265.6631,19.0283z"/>
	<path d="M378.8584,185.7461c4.6905-14.3399,8.2657-30.042,8.2891-44.9746v-17.2422l-9.2256,14.5664h0.002
		c-0.1758,0.2715-2.4326,3.6279-6.6846,7.2861c-2.9346,2.5264-6.7832,5.1856-11.5684,7.1758
		c0.5362-3.0332,1.1319-6.7744,1.6778-10.9912c9.1113-9.4981,15.833-24.8955,13.5332-48.3926c0,0-0.4356,3.9521-2.5078,10.0391
		c-3.7041,10.8779-12.6446,28.581-33.6973,42.7714c-3.4951,2.3555-7.3213,4.6153-11.5156,6.7305
		c2.7695,2.8115,12.6679,2.7188,22.7783-2.5654c-0.3359,1.9414-0.6523,3.6152-0.915,4.9424
		c-0.2276,1.1504-0.417,2.0498-0.5479,2.6523c-0.1318,0.6045-0.1982,0.8877-0.1982,0.8897l-1.7774,7.6025l7.6504-1.5684
		c9.4668-1.9414,16.791-6.2158,22.0117-10.3818c-2.1015,15.1826-7.2861,31.1143-12.7343,44.5313
		C369.4014,194.5156,374.5108,190.081,378.8584,185.7461z"/>
	<path d="M309.8975,50.8037c-5.6875-6.4414-12.9941-12.3936-20.7646-17.7383c0.6904-4.9131,0.6679-10.4199-0.3858-16.5732
		c0,0-0.0742,1.8652-0.709,4.997c-1.6201,7.9981-6.9404,24.3282-24.2041,39.4854c-1.2705,1.1162-2.5888,2.2265-3.9922,3.3262
		c3.3077,2.413,19.5235-3.9307,26.5284-20.9395c6.1914,4.4678,11.8037,9.2266,16.0156,14.042
		c7.0166,7.9248,11.6006,19.1631,14.4267,29.7539c2.8291-3.5039,5.2569-6.96,7.3311-10.3027
		C321.043,67.7011,316.5538,58.4228,309.8975,50.8037z"/>
	<path d="M192.0987,279.8047c-3.2256-4.2832-4.6709-7.0332-4.6709-7.0332c6.5508,23.0205,18.6592,37.3056,31.4912,45.7177
		l-3.8604,16.083c-1.5937,6.6407,2.4981,13.3145,9.1368,14.9063c6.6386,1.5957,13.3144-2.4922,14.9101-9.1348l2.9717-12.3828
		c12.665,2.459,22.8271,0.2568,24.6826-3.1894c-2.9512-0.6524-5.8008-1.3721-8.5605-2.1465
		C220.5411,312.0556,200.4092,290.8418,192.0987,279.8047z"/>
	<path d="M220.3106,96.7275c-1.958-2.5273-2.8516-4.167-2.8516-4.167c10.753,36.0938,44.4141,35.1856,47.0977,30.0488
		c-1.7461-0.3632-3.4199-0.7753-5.0537-1.2128C237.3135,115.4599,225.3086,103.1806,220.3106,96.7275z"/>
	<path d="M107.8858,283.8867c4.3086,9.8242,9.4883,17.751,15.1377,24.1094c11.5859,13.041,25.1523,19.457,37.2881,21.9511
		c0.9658,0.7608,1.9277,1.4981,2.8769,2.1846c11.0469,7.9951,20.7129,11.2647,21.0196,11.375l4.7392,1.6006l3.1992-9.4717
		l-4.7363-1.6006c0,0-0.0664-0.0224-0.2979-0.1084c-0.8632-0.3134-3.4951-1.333-7.0654-3.1601
		c7.4209-1.0264,12.5303-3.5518,13.4932-6.128c-3.0029-0.2451-5.8945-0.5859-8.7266-0.9775
		C131.0166,316.2285,107.8858,283.8867,107.8858,283.8867z"/>
	<path d="M133.5694,173.2871c-2.0742-4.1836-2.8848-6.7852-2.8848-6.7852c1.1817,12.7217,4.668,22.9737,9.4024,31.1514
		c-2.7793-0.6621-5.6758-1.0225-8.6582-1.0225c-3.8868,0-7.6338,0.5967-11.1563,1.7012l-6.7393-6.5322l1.9776,8.3994
		c-12.6104,5.9707-21.334,18.8066-21.334,33.6836c0,1.2969,0.0674,2.5791,0.1963,3.8418
		c-5.1397,1.4629-9.8115,4.0283-13.7471,7.4267c-3.8281-3.1113-8.708-4.9795-14.0254-4.9795c-12.29,0-22.2539,9.9649-22.2539,22.254
		c0,0.7314,0.0381,1.4541,0.1065,2.1679c-2.3145-0.7734-4.7881-1.1992-7.3633-1.1992c-12.8252,0-23.2217,10.3965-23.2217,23.2207
		c0,4.166,1.1025,8.0713,3.0225,11.4522C6.9737,302.1943,0,311.9736,0,323.3847c0,13.4502,9.6905,24.6319,22.4678,26.962
		C14.9834,345.6758,10,337.372,10,327.8984c0-14.6035,11.8409-26.4453,26.4473-26.4453c1.0381,0,2.0596,0.0664,3.0654,0.1826
		c-1.5673,4.0557-2.4355,8.46-2.4355,13.0694c0,13.5292,7.4121,25.3212,18.3906,31.5585c2.3945,1.3604,4.9561,2.4551,7.6504,3.2471
		c-8.9492-6.624-14.7519-17.2539-14.7519-29.2412c0-20.084,16.2793-36.3633,36.3632-36.3633c3.4024,0,6.6914,0.4776,9.8145,1.3516
		c-3.9111-2.8184-8.4033-4.876-13.2656-5.959c-0.003-0.1855-0.0137-0.3701-0.0137-0.5566c0-17.1895,13.9336-31.1231,31.1221-31.1231
		c0.7119,0,1.415,0.0322,2.1152,0.0791c7.2773,16.0401,18.0664,26.3701,28.9658,32.6319c6.2461,3.5888,12.5283,5.8427,18.207,7.0712
		c-2.2089,1.2227-5.0058,2.1856-8.3886,2.1739c-2.9658-0.0049-6.5254-0.7168-10.8233-2.8262
		c-0.2783-0.1367-0.5488-0.2598-0.833-0.4082l-10.0947-5.2842l2.9453,11.0068c0.5869,2.1905,1.2813,4.2872,2.0469,6.3145
		c0.6435,1.7051,1.3486,3.3467,2.1015,4.9395c4.8106,2.5752,10.2061,5.041,16.2061,7.2373
		c-2.708-3.418-5.1748-7.2442-7.1963-11.5245c1.96,0.375,3.8457,0.5489,5.6475,0.5469c7.2793,0.0049,12.914-2.8213,16.5664-5.5664
		c3.3584-2.5195,5.1836-4.959,5.6416-5.5986c3.9111-0.4082,6.6699-1.5205,7.664-3.0488c-2.2949-0.711-4.5185-1.461-6.6875-2.2393
		l-0.8212-0.7002c-0.2969,0.0273-0.5967,0.0527-0.9053,0.0723c-51.251-19.0801-66.8916-55.9414-66.8916-55.9414
		c0.7148,3.6289,1.584,7.0527,2.5771,10.2988c-1.9863-0.3369-4.0244-0.5215-6.1064-0.5215c-0.6563,0-1.3086,0.0195-1.957,0.0537
		c0.9853-5.4306,3.1455-10.4482,6.2119-14.7851c-0.0743-0.3575-0.1543-0.7061-0.2256-1.0674c0,0,0.1269,0.2969,0.3877,0.8398
		c2.625-3.6543,5.8896-6.8164,9.6386-9.3144c4.7823,17.6972,13.3838,33.2412,22.0918,45.6631
		c6.8799,5.1435,15.0674,10.1699,24.7305,14.5917c-0.4453-0.4746-0.9004-0.9667-1.3662-1.4746
		c-9.6777-10.5625-23.541-28.1533-31.8975-49.4902c21.0577,14.0811,43.6006,18.2119,43.9405,18.335l0.2236,0.042l10.5908,2.0097
		l-5.5703-9.4941c0-0.0029-0.4375-0.7471-1.25-2.2129c-0.6455-1.1621-1.5234-2.7774-2.5566-4.7441
		c6.6289,1.2919,11.7314,0.6162,13.2705-1.294c-2.4268-1.0322-4.7363-2.1143-6.9805-3.2217
		C152.8575,205.6084,138.9356,184.1103,133.5694,173.2871z M51.5459,264.3906c0-9.7617,7.9122-17.6738,17.6729-17.6738
		c2.8486,0,5.5303,0.6894,7.9131,1.8867c-5.6543,6.3974-9.0918,14.7998-9.0918,24.0098c0,2.0918,0.1865,4.1386,0.5263,6.1337
		c-2.3769,0.3135-4.6796,0.8565-6.8886,1.6084c-0.9629-0.456-1.878-0.9921-2.7354-1.6064c-1.3799-3.833-3.7412-7.1943-6.7783-9.79
		C51.7735,267.5,51.5459,265.9736,51.5459,264.3906z M27.4151,295.9707c-1.4824,0-2.9365,0.1211-4.3555,0.3476
		c-1.0683-2.333-1.6787-4.9199-1.6787-7.6543c0-10.1836,8.2549-18.4394,18.4404-18.4394c7.9336,0,14.6768,5.0185,17.2793,12.0459
		c-7.2617,3.6474-13.1279,9.6562-16.5908,17.0244C36.6192,297.1758,32.1582,295.9707,27.4151,295.9707z M129.5157,207.0488
		c3.0312-0.7969,6.2109-1.2246,9.4912-1.2246c2.5156,0,4.9707,0.2529,7.3467,0.7285c5.3222,6.2637,11.3974,10.7734,17.3222,13.8565
		c1.1494,2.3876,2.2403,4.582,3.2344,6.5283C156.9131,223.7109,141.8145,217.5097,129.5157,207.0488z"/>
	<path d="M325.3721,222.4394c0,0-0.7851,3.0049-2.9551,7.9063c-5.5937,12.6318-20.3974,37.8564-54.6855,56.6816
		c-2.5127,1.3799-5.125,2.7266-7.8506,4.0293c2.0518,2.3281,9.0127,2.7129,17.6777,0.1504l11.795,49.1367
		c1.5937,6.6426,8.2695,10.7305,14.9101,9.1348c6.6367-1.5918,10.7305-8.2656,9.1348-14.9063l-13.376-55.7265
		C312.8291,267.9668,324.0264,250.0351,325.3721,222.4394z"/>
	<path d="M216.8614,32.082c-0.9248-4.1728-1.0742-6.6621-1.0742-6.6621c-1.4776,9.8037-1.0928,18.3935,0.5263,25.8457
		c-8.6553,3.6611-14.2041,10.6553-17.2607,18.2197c-3.3213,8.1182-4.2305,17.0362-4.2412,25
		c0.0009,2.9668,0.1328,5.8037,0.3349,8.416c-2.4599-3.4531-4.7207-7.3574-6.5556-11.1025
		c-2.0821-4.1533-3.7286-8.0879-4.8438-10.9609c-0.5586-1.4346-0.9844-2.6075-1.2695-3.4112
		c-0.2832-0.8008-0.4112-1.2011-0.4131-1.2011l-3.7314-11.4786l-5.4805,10.7549c-3.5508,7.0274-5.5449,15.0596-6.583,23.335
		c2.4316,3.8252,5.4248,7.918,9.1025,12.0928c0.2002-6.5469,0.8848-13.0479,2.2295-18.9424
		c0.6279,1.3769,1.3115,2.8154,2.0479,4.2871c4.6005,9.0176,10.8427,19.4014,20.0214,24.831l9.9707,5.7403l-2.6074-11.208
		c0,0-0.0244-0.1016-0.081-0.3731c-0.4092-1.8877-2.1485-10.6992-2.1426-20.7793c-0.0127-7.1621,0.9014-14.9433,3.4892-21.1963
		c2.3399-5.5634,5.6592-9.8125,10.9991-12.3857c9.7666,23.7451,32.622,32.2158,37.1259,28.792
		c-1.9316-1.4512-3.748-2.9209-5.5009-4.3985C226.9102,65.0595,219.2539,42.8828,216.8614,32.082z"/>
	<path d="M157.4971,91.2129c-2.0723-6.087-2.5078-10.0391-2.5078-10.0391c-2.0498,20.9385,3.0654,35.4434,10.6504,45.0762
		c0.6309,10.5244,2.0215,19.9511,3.1455,26.3066c-5.0137-2.0849-9-4.9043-11.9775-7.5332
		c-2.1661-1.9111-3.7823-3.7129-4.8311-5.0029c-0.5254-0.6446-0.9072-1.1612-1.1484-1.499c-0.1211-0.17-0.2051-0.294-0.2539-0.3663
		c-0.0176-0.0263-0.0303-0.0468-0.0401-0.0595h0.001l-9.2256-14.5596v17.2354c0.0274,17.1601,4.7412,35.3369,10.4551,51.2959
		c4.459,4.5918,9.8096,9.291,16.2314,13.7871c-1.5371-3.5186-3.0976-7.2725-4.6172-11.209
		c-4.8281-12.4707-9.1953-26.7188-11.083-40.3565c5.2227,4.1651,12.545,8.4375,22.0098,10.3789l7.6533,1.5704l-1.7802-7.6065
		c0,0-0.0665-0.2851-0.1983-0.8877c-0.5762-2.6377-2.2695-10.9492-3.4521-21.5732c11.2011,7.205,23.1015,7.6718,26.1816,4.5439
		c-4.1943-2.1152-8.0205-4.375-11.5156-6.7305C170.1416,119.7939,161.2012,102.0908,157.4971,91.2129z"/>
</g>
</svg>
